<svg width="34" height="35" viewBox="0 0 34 35" fill="none" xmlns="http://www.w3.org/2000/svg">
<path d="M2.72259 17.5599C2.72259 16.0036 2.70266 14.4473 2.72674 12.8918C2.76495 10.4256 3.90617 8.64789 6.09726 7.59575C8.90463 6.24733 11.7286 4.93342 14.5476 3.60941C16.1556 2.8544 17.7778 2.83672 19.3874 3.58753C22.2289 4.91238 25.0687 6.2406 27.8951 7.59828C30.0239 8.62096 31.2058 10.3456 31.2457 12.7437C31.298 15.9497 31.298 19.1575 31.2457 22.3636C31.2067 24.733 30.0563 26.4677 27.9458 27.4736C25.1069 28.8271 22.2388 30.1182 19.3833 31.4372C18.4979 31.8463 17.5718 32.018 16.5992 31.9549C15.8965 31.9094 15.232 31.7251 14.5941 31.4313C11.766 30.1283 8.92872 28.8456 6.11387 27.5131C3.90534 26.4677 2.76329 24.6757 2.72674 22.1969C2.70432 20.6515 2.72259 19.1061 2.72259 17.5599ZM29.2697 12.7327C29.1335 12.7925 29.0588 12.8236 28.9857 12.859C25.3926 14.5836 21.8003 16.31 18.2039 18.0279C18.0195 18.1163 17.9838 18.2274 17.9838 18.4143C17.9887 22.1144 17.9879 25.8137 17.9879 29.5139C17.9879 29.6031 17.9979 29.6923 18.0054 29.822C18.2736 29.71 18.5137 29.6174 18.7471 29.5105C21.4805 28.2522 24.2123 26.9896 26.9458 25.7312C28.5056 25.0133 29.2772 23.7945 29.2722 22.053C29.2623 19.0784 29.2697 16.1038 29.2697 13.1292V12.7336V12.7327ZM4.73011 12.7285C4.72264 12.8573 4.71516 12.9196 4.71516 12.9819C4.71516 16.0718 4.70104 19.1625 4.72015 22.2525C4.73011 23.8753 5.51917 25.0217 6.96439 25.6925C9.76927 26.9946 12.5808 28.2833 15.3898 29.5753C15.5759 29.6603 15.7686 29.7294 15.982 29.8152C15.9879 29.6957 15.9962 29.6141 15.9962 29.5332C15.9962 25.823 15.9945 22.1127 16.0028 18.4025C16.0028 18.1836 15.9239 18.0944 15.7428 18.0086C12.6622 16.5364 9.58405 15.0575 6.50507 13.5795C5.92782 13.3026 5.34973 13.0265 4.73011 12.7293V12.7285ZM22.3751 13.7958C22.292 13.7419 22.2538 13.7116 22.2098 13.6897C21.3269 13.2512 20.4423 12.8144 19.5594 12.3767C16.5643 10.8936 13.57 9.40964 10.5716 7.93328C10.4587 7.87773 10.2817 7.85584 10.1729 7.9055C9.00431 8.44251 7.83816 8.98794 6.68116 9.55021C6.12384 9.82124 5.67781 10.232 5.3381 10.7673C5.39292 10.8018 5.41784 10.8212 5.44608 10.8347C9.23438 12.6544 13.0218 14.4751 16.8143 16.2864C16.9223 16.3378 17.0992 16.3234 17.2121 16.2704C18.414 15.7048 19.6092 15.1257 20.8061 14.55C21.3161 14.305 21.826 14.0592 22.3751 13.795V13.7958ZM28.6568 10.7799C28.2639 10.1865 27.7805 9.76821 27.1866 9.48792C24.2979 8.12182 21.4099 6.75488 18.5153 5.40226C17.4887 4.92248 16.4463 4.94437 15.4189 5.42414C14.6108 5.80207 13.8051 6.18589 12.9994 6.56803C12.9081 6.61095 12.82 6.65977 12.6888 6.72711C13.4164 7.0882 14.0999 7.42909 14.7843 7.76746C18.002 9.35914 21.2197 10.9525 24.4407 12.5383C24.5595 12.5964 24.7364 12.6527 24.8394 12.6048C26.1077 12.0122 27.3669 11.4003 28.6576 10.7799H28.6568Z" fill="#545454"/>
<path d="M12.9817 25.9307C12.8255 25.8802 12.6636 25.8448 12.5149 25.7784C11.6835 25.4046 10.8545 25.0259 10.0265 24.6437C9.44255 24.3735 9.20999 23.8205 9.44505 23.2827C9.67844 22.7482 10.2507 22.5437 10.8305 22.8038C11.7001 23.1935 12.5689 23.5865 13.4302 23.9948C13.8787 24.2077 14.0905 24.6917 13.9717 25.1445C13.8496 25.6092 13.4618 25.9088 12.9817 25.9324V25.9307Z" fill="#545454"/>
</svg>
