<svg width="36" height="37" viewBox="0 0 36 37" fill="none" xmlns="http://www.w3.org/2000/svg">
<path d="M7.31667 7.52867C7.19795 7.52867 7.07922 7.52867 6.9605 7.52867C5.81986 7.52867 4.67834 7.53223 3.5377 7.52689C2.77874 7.52333 2.25811 7.0197 2.26075 6.30875C2.26427 5.60313 2.79369 5.10484 3.55177 5.10395C5.08728 5.10128 6.62367 5.10128 8.15918 5.10395C8.87504 5.10484 9.2875 5.42695 9.46251 6.12367C9.78087 7.39075 10.0922 8.65962 10.4185 9.97298H10.83C17.1269 9.97298 23.4245 9.97298 29.7214 9.97298C30.8198 9.97298 31.3228 10.6225 31.0564 11.709C30.2394 15.0324 29.4223 18.3567 28.5957 21.6775C28.1331 23.5345 26.7858 24.5863 24.8959 24.5872C21.4291 24.589 17.9623 24.5899 14.4956 24.5872C12.6338 24.5854 11.2874 23.5159 10.83 21.6802C9.98138 18.274 9.13272 14.8669 8.28846 11.459C7.98769 10.2444 7.70011 9.02622 7.40461 7.81074C7.38351 7.72532 7.35273 7.64257 7.31667 7.53045V7.52867ZM11.0508 12.4315C11.0508 12.4947 11.0464 12.5178 11.0508 12.5383C11.7596 15.4088 12.4649 18.2802 13.1799 21.1499C13.3514 21.8377 13.7815 22.1589 14.4973 22.1598C17.9632 22.1625 21.43 22.1616 24.8959 22.1598C25.6654 22.1598 26.069 21.8386 26.2572 21.0813C26.9476 18.2971 27.6362 15.5129 28.3239 12.7287C28.3459 12.638 28.3512 12.5427 28.367 12.4315H11.0508Z" fill="black"/>
<path d="M10.6884 29.4509C10.6972 28.109 11.7807 27.0235 13.1051 27.0306C14.4208 27.0377 15.5139 28.1562 15.4999 29.482C15.4867 30.8229 14.4023 31.9023 13.0735 31.8987C11.7499 31.8952 10.6788 30.7963 10.6876 29.4509H10.6884Z" fill="black"/>
<path d="M23.9336 29.4535C23.9389 28.1117 25.0223 27.0244 26.3477 27.0306C27.6651 27.0368 28.7529 28.1482 28.745 29.4793C28.7371 30.8167 27.6492 31.9032 26.3222 31.8987C24.9968 31.8943 23.9292 30.8016 23.9345 29.4535H23.9336Z" fill="black"/>
</svg>
