<svg width="33" height="38" viewBox="0 0 33 38" fill="none" xmlns="http://www.w3.org/2000/svg">
<path d="M9.63023 29.7439C7.99409 29.7336 6.51756 29.3919 5.14436 28.6427C2.63447 27.2748 1.14072 25.1069 0.444931 22.3873C-0.658452 18.0758 0.292225 14.2226 3.2763 10.9327C5.3028 8.69792 7.40164 6.53121 9.48326 4.34834C10.1813 3.61533 10.6831 2.79228 10.9736 1.81571C11.5201 -0.0231668 13.5363 -0.578407 14.9784 0.689065C15.7247 1.34589 16.4538 1.33896 17.192 0.669441C18.5583 -0.570327 20.6331 -0.0185491 21.1566 1.75106C21.4586 2.7715 21.9787 3.62918 22.7101 4.39336C24.7561 6.53121 26.7872 8.68291 28.8091 10.8438C31.063 13.2518 32.1985 16.1261 32.1308 19.4276C32.071 22.3434 31.1697 24.9823 29.1203 27.1155C27.4623 28.8412 25.3887 29.6816 23.004 29.7382C22.8754 29.7416 22.7468 29.7382 22.5275 29.7382C22.6538 29.9113 22.7376 30.0314 22.826 30.148C24.2268 32.0076 24.957 34.1051 25.0121 36.4368C25.0282 37.1052 24.7848 37.3442 24.1131 37.3442C18.7558 37.3442 13.3996 37.3442 8.04232 37.3442C7.3672 37.3442 7.12608 37.1087 7.14101 36.4403C7.19153 34.1559 7.8942 32.093 9.24789 30.2553C9.35696 30.1076 9.46834 29.961 9.63023 29.7451V29.7439ZM14.4904 2.1066C14.3251 1.95769 14.1804 1.82148 14.03 1.69219C13.3813 1.13233 12.527 1.35628 12.2997 2.18279C11.9495 3.45488 11.256 4.49725 10.3559 5.43804C8.27999 7.60706 6.17081 9.74837 4.1799 11.9947C1.40824 15.1219 0.6826 18.7557 1.9915 22.7336C3.13622 26.2093 5.96414 28.3299 9.38681 28.3472C13.9278 28.3703 18.4699 28.3945 23.0098 28.3391C25.7699 28.3056 27.9044 27.0174 29.2982 24.621C31.7576 20.3937 31.1031 15.2615 27.7034 11.668C25.6792 9.52905 23.6378 7.40505 21.6434 5.23834C21.1061 4.6554 20.6824 3.95702 20.2645 3.27595C20.059 2.94119 19.9843 2.52563 19.8523 2.14585C19.6181 1.4694 18.9602 1.19467 18.3896 1.55252C18.9602 3.97202 19.8248 6.28764 21.1405 8.39663C22.051 9.85572 23.1154 11.219 24.1143 12.6227C24.399 13.0232 24.391 13.3984 24.0798 13.6628C23.7652 13.9306 23.3599 13.8786 23.0614 13.5173C20.5194 10.4421 18.4998 7.0749 17.3941 3.20208C17.3631 3.09357 17.3172 2.98968 17.2448 2.79228C17.1507 3.10742 17.0806 3.31174 17.0278 3.51952C16.2184 6.68935 16.5525 9.73913 17.9842 12.6735C18.2311 13.1791 18.1507 13.5496 17.7661 13.7516C17.37 13.9606 17.0049 13.7909 16.7488 13.268C15.3492 10.4156 14.8923 7.42467 15.4583 4.28716C15.5433 3.8185 15.6489 3.35329 15.7442 2.88694C15.2459 3.39139 14.8337 3.93855 14.4054 4.47301C12.3629 7.01488 11.0815 9.89497 10.5798 13.1248C10.5028 13.62 10.1768 13.8936 9.77375 13.8221C9.36385 13.7493 9.14685 13.3869 9.22377 12.8997C9.72897 9.68257 10.9403 6.76554 12.9036 4.17057C13.4226 3.48489 13.9508 2.80729 14.4881 2.10776L14.4904 2.1066ZM15.3802 34.5957C14.8153 34.5322 14.0472 34.755 14.0392 33.8938C14.0323 33.0027 14.8371 33.2566 15.3492 33.17V31.2284C15.2976 31.2688 15.2838 31.2758 15.2757 31.2873C15.084 31.5378 14.8945 31.7894 14.7028 32.0411C14.3274 32.534 14.1517 32.5894 13.565 32.3932C12.5489 32.0526 11.5362 31.704 10.5155 31.3785C10.3938 31.3392 10.1584 31.3797 10.0987 31.4685C9.18474 32.8087 8.66807 34.2921 8.55095 35.9301H10.5602C10.5648 35.7046 10.4255 35.4349 10.1423 35.1209C9.82426 34.7688 9.80819 34.3717 10.0998 34.0866C10.3811 33.8119 10.7612 33.828 11.0987 34.1235C11.628 34.5864 12.1057 35.0736 11.9644 35.8724C11.961 35.8908 11.9943 35.9162 12.0023 35.9266H15.3802V34.5957ZM23.6034 35.9393C23.4897 34.3336 22.9833 32.893 22.1394 31.5574C21.981 31.3069 21.8363 31.2919 21.5849 31.3797C20.6262 31.7144 19.6594 32.0284 18.6961 32.3505C17.9441 32.6021 17.8522 32.5721 17.3642 31.9245C17.1909 31.6936 17.0129 31.4651 16.7856 31.1696V33.1804C17.3321 33.2405 18.1037 33.0165 18.114 33.8742C18.1243 34.7653 17.3195 34.5183 16.7971 34.6037V35.9382H20.2507C19.9648 35.0909 20.5125 34.6361 21.02 34.1605C21.3736 33.8303 21.7571 33.8003 22.0499 34.082C22.3553 34.3752 22.3312 34.778 21.9844 35.1486C21.9156 35.2225 21.8249 35.2802 21.7766 35.3656C21.6802 35.533 21.6078 35.7131 21.4988 35.9416H23.6034V35.9393ZM11.1963 29.9852C11.2124 30.0395 11.2285 30.0949 11.2445 30.1491C12.0012 30.4054 12.7567 30.6674 13.5168 30.911C13.6155 30.9433 13.7946 30.9248 13.8509 30.8567C14.1322 30.5208 14.3848 30.1607 14.7017 29.737C13.7177 29.737 12.8233 29.7197 11.93 29.7486C11.6831 29.7566 11.4409 29.9021 11.1963 29.9852ZM20.9373 30.1433C20.7869 29.8317 20.5699 29.7151 20.2427 29.7301C19.7295 29.7532 19.2139 29.7359 18.6996 29.7359C18.3103 29.7359 17.9211 29.7359 17.4595 29.7359C17.765 30.1491 17.998 30.492 18.2633 30.8083C18.3321 30.8902 18.5181 30.9445 18.6192 30.9133C19.393 30.6709 20.16 30.4042 20.9373 30.1433Z" fill="black"/>
<path d="M20.2072 16.596C19.6434 16.5983 19.1704 16.1227 19.1738 15.5548C19.1773 15.0041 19.6285 14.5413 20.1762 14.5274C20.7411 14.5135 21.221 14.9776 21.2302 15.5455C21.2394 16.1135 20.7709 16.5925 20.2072 16.5948V16.596Z" fill="black"/>
<path d="M12.9796 15.5663C12.9761 16.1343 12.4996 16.6041 11.9359 16.596C11.3721 16.5868 10.9083 16.1008 10.9232 15.5352C10.937 14.9857 11.3985 14.5309 11.9462 14.5286C12.5111 14.5251 12.983 14.9996 12.9796 15.5675V15.5663Z" fill="black"/>
<path d="M5.18834 20.7505C4.60623 20.732 4.25374 20.2865 4.42367 19.8732C4.6533 19.3168 4.92542 18.7754 5.23312 18.2583C5.41338 17.9558 5.74405 17.8912 6.06784 18.0655C6.4008 18.2444 6.54892 18.5457 6.39621 18.8989C6.17002 19.4253 5.91513 19.9448 5.62465 20.4377C5.52361 20.6074 5.27675 20.6905 5.18834 20.7505Z" fill="black"/>
<path d="M24.4438 20.7505C23.8628 20.7331 23.5092 20.2864 23.678 19.8743C23.9065 19.3179 24.1797 18.7765 24.4874 18.2594C24.6677 17.9569 24.9984 17.8923 25.321 18.0666C25.654 18.2455 25.8021 18.5468 25.6505 18.9C25.4243 19.4264 25.1706 19.9459 24.879 20.4388C24.7779 20.6096 24.5311 20.6916 24.4427 20.7516L24.4438 20.7505Z" fill="black"/>
<path d="M7.26331 20.7505C6.65364 20.7332 6.31723 20.2703 6.49979 19.8339C6.71564 19.3179 6.97168 18.8181 7.2415 18.3275C7.4298 17.9858 7.80525 17.8946 8.13133 18.062C8.4597 18.2317 8.60552 18.5826 8.44707 18.9382C8.22547 19.4357 7.9924 19.9332 7.71339 20.3996C7.60432 20.5831 7.35517 20.6812 7.26446 20.7493L7.26331 20.7505Z" fill="black"/>
<path d="M27.7705 18.7431C27.743 18.8216 27.7108 18.9474 27.6546 19.0617C27.4341 19.513 27.2206 19.9701 26.9749 20.4076C26.7831 20.747 26.4077 20.8371 26.0827 20.6697C25.7544 20.5 25.6108 20.1468 25.7704 19.7924C25.9932 19.2949 26.2354 18.8043 26.4984 18.3264C26.6603 18.032 26.9416 17.9166 27.2699 18.0158C27.5926 18.114 27.7533 18.3541 27.7717 18.7442L27.7705 18.7431Z" fill="black"/>
<path d="M22.821 17.9812C23.4261 17.9939 23.7705 18.4591 23.5903 18.8931C23.3698 19.4218 23.1126 19.9401 22.8244 20.4353C22.6373 20.7574 22.3135 20.8394 21.9633 20.672C21.6281 20.5127 21.4822 20.1548 21.6395 19.7993C21.8611 19.3018 22.0942 18.8043 22.3732 18.3379C22.4834 18.1544 22.7291 18.0516 22.821 17.9824V17.9812Z" fill="black"/>
<path d="M9.72771 17.9881C10.3489 17.9719 10.7094 18.451 10.5211 18.9046C10.3052 19.4206 10.0503 19.9216 9.77938 20.411C9.59223 20.7493 9.20874 20.837 8.88611 20.6673C8.56118 20.4965 8.41996 20.1432 8.57955 19.7865C8.79655 19.3017 9.02389 18.818 9.29371 18.3632C9.40508 18.1762 9.63816 18.0619 9.72886 17.9881H9.72771Z" fill="black"/>
<path d="M16.0797 20.8151C15.5275 20.6592 14.9844 20.5427 14.4688 20.351C14.0544 20.1964 13.9154 19.8004 14.0704 19.4426C14.2277 19.0778 14.5928 18.922 14.997 19.0974C15.7203 19.4126 16.4276 19.4137 17.1521 19.0997C17.5597 18.9231 17.9202 19.072 18.0821 19.4368C18.2406 19.7958 18.1051 20.194 17.6929 20.3487C17.1774 20.5415 16.6354 20.6593 16.082 20.8162L16.0797 20.8151Z" fill="black"/>
</svg>
