<?xml version="1.0" encoding="UTF-8"?>
<svg id="Layer_1" data-name="Layer 1" xmlns="http://www.w3.org/2000/svg" viewBox="0 0 1024 994">
  <defs>
    <style>
      .cls-1 {
        fill: #fff;
      }

      .cls-2 {
        fill: #54a69a;
      }

      .cls-3 {
        fill: #1a3763;
      }

      .cls-4 {
        fill: #fffefe;
      }
    </style>
  </defs>
  <rect class="cls-3" width="1024" height="994"/>
  <g>
    <g>
      <g>
        <path class="cls-4" d="M727.01,529.42v16.34h28.96v12.25h-28.94v14.87h32.33v12.82h-46.54v-69.01h44.98v12.74h-30.78Z"/>
        <path class="cls-4" d="M560.84,585.68h-.81c-4.4,0-8.8-.01-13.2.01-.62,0-.91-.16-1.13-.8-1.64-4.77-3.33-9.52-4.98-14.28-.19-.55-.44-.75-1.02-.75-8.02.02-16.03.02-24.05,0-.62,0-.86.2-1.07.79-1.68,4.72-3.41,9.43-5.12,14.15-.1.27-.2.53-.32.84h-13.92c.73-1.91,1.45-3.77,2.17-5.63,8.07-20.85,16.15-41.71,24.2-62.57.25-.64.55-.84,1.21-.83,3.54.04,7.08.03,10.62,0,.53,0,.79.14,1,.68,8.71,22.55,17.45,45.1,26.17,67.65.08.21.14.43.24.74ZM527.75,534.24c-.06,0-.11-.02-.17-.02-2.86,7.98-5.72,15.97-8.59,24h17.25c-2.84-8.03-5.67-16.01-8.49-23.98Z"/>
        <path class="cls-4" d="M450.09,516.69c.2-.02.38-.05.55-.05,9.28.02,18.56-.08,27.84.1,5.74.11,11.04,1.83,15.51,5.64,3.49,2.97,5.44,6.79,6.12,11.27.63,4.16.46,8.28-1,12.26-1.98,5.41-5.96,8.84-11.17,10.97-3.41,1.39-6.99,1.98-10.66,2.01-4.42.04-8.85.02-13.28.02-.23,0-.45,0-.76,0v26.8h-13.15v-69.01ZM463.23,546.84c.17.02.27.04.37.04,4.37,0,8.75.05,13.12-.05,1.47-.03,2.97-.33,4.39-.73,2.7-.75,4.66-2.37,5.34-5.23.47-1.98.48-3.95,0-5.93-.51-2.1-1.75-3.6-3.7-4.53-1.59-.77-3.28-1.23-5.03-1.27-4.7-.09-9.4-.09-14.1-.12-.12,0-.24.05-.38.08v17.73Z"/>
        <path class="cls-4" d="M590.83,585.7h-13.18c0-.33,0-.64,0-.94,0-9.13,0-18.26-.02-27.38,0-.49-.16-1.04-.41-1.45-7.88-12.78-15.78-25.55-23.67-38.32-.17-.28-.34-.56-.56-.94.36-.02.6-.04.84-.04,4.48,0,8.95.01,13.43-.02.59,0,.89.2,1.19.71,5.12,8.68,10.26,17.34,15.4,26.01.14.24.29.48.49.81.21-.33.39-.6.55-.88,5.17-8.62,10.34-17.23,15.48-25.86.35-.59.73-.79,1.39-.78,4.3.03,8.6.02,12.9.02h.97c-.23.4-.39.68-.56.95-7.92,12.76-15.84,25.51-23.74,38.28-.29.47-.47,1.1-.48,1.66-.03,9.08-.02,18.15-.02,27.23v.96Z"/>
        <path class="cls-4" d="M892.44,529.44h-21.32v56.26h-13.18v-56.21h-21.25v-12.8h55.76v12.75Z"/>
        <polygon class="cls-4" points="685.33 516.69 685.33 516.61 678.2 516.61 660.49 565.33 641.76 516.69 637.68 516.69 624.53 516.69 624.53 532.02 624.53 585.7 637.68 585.7 637.68 537.05 653.87 580.37 666.05 580.37 682.28 539.68 682.28 585.7 695.43 585.7 695.43 532.02 695.43 516.69 685.33 516.69"/>
        <polygon class="cls-4" points="815.58 516.69 815.58 565.9 785.46 516.69 773.39 516.69 773.39 585.7 785.46 585.7 785.46 539 815.58 585.7 827.65 585.7 827.65 516.69 815.58 516.69"/>
      </g>
      <g>
        <path class="cls-4" d="M871.44,458.58c6.98,10.99,13.94,21.94,21,33.04h-1.02c-5.14,0-10.27-.01-15.41.02-.64,0-.98-.2-1.32-.76-5.91-9.91-11.85-19.81-17.75-29.72-.37-.62-.77-.84-1.46-.83-2.64.04-5.28.02-8.01.02v31.21h-15.26v-79.81c.25-.02.45-.06.65-.06,10.74.02,21.48-.07,32.22.11,6.14.11,11.94,1.74,17.01,5.55,4.99,3.75,7.5,8.92,8.08,15.16.43,4.61.05,9.13-1.89,13.38-2.62,5.76-7.14,9.3-12.82,11.41-1.28.48-2.61.82-4.04,1.27ZM847.48,446.14c.37.02.63.04.89.04,4.67,0,9.33.02,14-.01,1.29,0,2.58-.12,3.86-.3,5.57-.81,8.52-4.43,8.26-10.12-.16-3.64-1.54-6.55-4.99-7.92-1.54-.61-3.22-1.08-4.85-1.13-5.57-.17-11.15-.13-16.73-.17-.14,0-.27.06-.44.1v19.52Z"/>
        <path class="cls-4" d="M587.16,491.59h-15.2v-32.57h-32.93v32.54h-15.24v-79.79h15.19v32.26h32.94v-32.27h15.25v79.83Z"/>
        <path class="cls-4" d="M675.01,491.62c-4.3,0-8.46,0-12.63,0-1.26,0-2.53-.04-3.79.02-.63.03-.91-.19-1.13-.81-1.91-5.52-3.88-11.01-5.78-16.53-.26-.75-.6-.98-1.37-.98-9.25.03-18.49.03-27.74,0-.69,0-1.01.17-1.27.88-1.95,5.47-3.95,10.92-5.94,16.37-.12.34-.26.67-.39,1.02h-16.12c.13-.38.23-.72.36-1.04,10.09-25.99,20.18-51.98,30.25-77.97.25-.65.54-.92,1.27-.91,4.14.04,8.28.04,12.42,0,.66,0,.96.2,1.21.84,10.1,26.08,20.23,52.15,30.35,78.22.1.25.17.5.3.88ZM626.43,459.81h20.01c-3.31-9.32-6.59-18.56-9.95-28.03-3.41,9.5-6.72,18.72-10.06,28.03Z"/>
        <path class="cls-4" d="M473.06,426.53h-22.97v-14.77h61.33v14.71h-23.05v65.09h-15.3v-65.03Z"/>
        <path class="cls-4" d="M684.36,411.74h15.14v79.82h-15.14v-79.82Z"/>
        <path class="cls-4" d="M819.57,490.4l-11.87-11.8c1.47-1.77,2.78-3.71,3.92-5.83,3.31-6.18,4.97-13.18,4.97-21.01s-1.57-14.63-4.72-20.72c-3.15-6.09-7.72-10.84-13.71-14.24-6-3.4-12.73-5.11-20.2-5.11-11.4,0-20.71,3.62-27.92,10.87-7.21,7.25-10.82,17.28-10.82,30.09,0,6.77,1.54,13.2,4.64,19.27,3.09,6.07,7.63,10.86,13.63,14.37,6,3.51,12.8,5.26,20.42,5.26,7.03,0,13.57-1.59,19.64-4.76.19-.1.36-.21.54-.31l12.71,12.64,8.77-8.72ZM777.91,479.11c-5.39,0-9.99-1.16-14.06-3.54-3.92-2.3-6.8-5.33-8.81-9.27-2.21-4.34-3.29-8.81-3.29-13.65,0-9.49,2.35-16.46,7.2-21.33,4.87-4.9,10.91-7.18,19.02-7.18,5.3,0,9.88,1.13,13.99,3.47,3.88,2.2,6.75,5.18,8.78,9.12,2.24,4.34,3.33,9.26,3.33,15.03s-1.14,10.76-3.49,15.15c-.54,1.01-1.14,1.95-1.78,2.83l-12.11-12.04-8.77,8.72,10.79,10.73c-3.39,1.31-6.94,1.96-10.79,1.96Z"/>
      </g>
    </g>
    <g>
      <path class="cls-1" d="M190.5,384.21c3.54-.18,7.09-.44,10.63-.17,31.59.03,63.19,0,94.78.01,14.2.07,28.9,3.13,40.65,11.48,9.9,6.92,16.9,17.46,20.56,28.88,2.26,6.98,3.49,14.3,3.69,21.63-.03,31.28.01,62.57-.02,93.85,22.82,22.01,45.69,43.98,68.52,65.98.76.75,1.79,1.72,1.49,2.9-.55,1.06-1.93,1.16-2.98,1.28-75.56-.02-151.12,0-226.67,0-13.27.07-26.88-1.9-38.78-8.07-6.92-3.57-13.1-8.62-17.84-14.8-7.94-10.29-11.92-23.2-12.79-36.05-.31-3.16-.15-6.34-.1-9.51,0-35.02,0-70.04,0-105.06.26-10.74,3.33-21.66,10-30.22,6.66-8.71,16.47-14.5,26.76-17.88,7.15-2.36,14.61-3.66,22.1-4.25ZM177.21,413.26c-5.01,1.63-9.62,4.79-12.49,9.26-2.94,4.56-4.31,10.08-4.14,15.48,0,15.24,0,30.48,0,45.72,13.3,0,26.6.01,39.91,0v-21.83c-.04-3.6,1.56-7.28,4.53-9.39,2.99-2.16,6.81-2.73,10.43-2.64,6.06,0,12.12,0,18.18,0,.03-12.73-.01-25.46.02-38.19-13.77-.04-27.54,0-41.3-.02-5.08-.49-10.28.03-15.14,1.61ZM260.54,411.64c-.06,12.74-.02,25.48-.02,38.22,6.42.01,12.85,0,19.27,0,3.43.02,7.04.78,9.77,2.97,2.71,2.14,4.14,5.64,4.1,9.05,0,7.28-.07,14.56-.04,21.84,13.32.02,26.64,0,39.95,0v-46.45c.09-3.69-.5-7.41-1.8-10.87-1.8-4.89-5.51-9-10.13-11.38-6.06-3.15-13.11-3.96-19.84-3.37-13.75-.01-27.5.03-41.25-.02ZM160.59,510.25c-.01,16.09,0,32.17,0,48.26.11,3.82.86,7.69,2.7,11.08,2.19,4.15,5.93,7.35,10.16,9.31,6.09,2.85,12.95,3.72,19.61,3.42,13.53.01,27.06,0,40.58,0,0-12.73.01-25.47,0-38.2-6.43,0-12.85,0-19.27,0-3.43-.01-7.04-.78-9.77-2.97-2.71-2.15-4.13-5.65-4.09-9.07v-21.83c-13.3,0-26.6,0-39.91,0ZM293.57,511.82c-.04,6.87-.01,13.74-.01,20.6.11,2.93-.64,6.02-2.67,8.22-2.27,2.39-5.66,3.43-8.89,3.39-7.42-.03-14.84.04-22.26-.04-.17,1.66-.04,3.32-.08,4.99-.01,10.93.03,21.85-.02,32.78,3.15.12,6.31.02,9.46.05,31.55-.02,63.1.04,94.65-.03-13.56-13.62-27.21-27.14-40.78-40.75-9.84-9.69-19.47-19.61-29.39-29.21Z"/>
      <path class="cls-2" d="M293.57,511.82c9.93,9.6,19.55,19.52,29.39,29.21,13.57,13.61,27.22,27.13,40.78,40.75-31.55.07-63.1.01-94.65.03-3.16-.03-6.31.07-9.46-.05.05-10.93,0-21.85.02-32.78.04-1.67-.09-3.34.08-4.99,7.42.08,14.84,0,22.26.04,3.23.04,6.63-1,8.89-3.39,2.03-2.2,2.78-5.29,2.67-8.22,0-6.87-.03-13.74.01-20.6Z"/>
    </g>
  </g>
</svg>