<?xml version="1.0" encoding="UTF-8"?>
<svg id="Layer_2" data-name="Layer 2" xmlns="http://www.w3.org/2000/svg" viewBox="0 0 898.44 680.87">
  <defs>
    <style>
      .cls-1 {
        fill: #808083;
      }

      .cls-2 {
        fill: #aa0017;
      }

      .cls-3 {
        fill: #ff7b00;
      }

      .cls-4 {
        fill: #f38020;
      }

      .cls-5 {
        fill: none;
      }

      .cls-6 {
        fill: #ffcd00;
      }

      .cls-7 {
        fill: #ed1c24;
      }

      .cls-8 {
        fill: #ff000f;
      }
    </style>
  </defs>
  <path class="cls-5" d="M61.97,542.57s.1-.07.14-.11c.85-.66,1.42-1.3,1.87-1.84-.21.25-.43.48-.65.71-.33.33-.77.78-1.37,1.24Z"/>
  <path class="cls-5" d="M58.82,544.27s.02,0,.02,0c-.03.01-.07.02-.1.03.03,0,.05-.02.08-.03Z"/>
  <path class="cls-5" d="M458.4,109.09c-1.63,4.66-3.26,9.33-4.89,13.99-1.91,5.48-3.83,10.96-5.74,16.43-2.11,6.03-4.21,12.06-6.32,18.1-2.21,6.33-4.42,12.65-6.63,18.98-2.22,6.36-4.44,12.72-6.66,19.08-2.14,6.14-4.29,12.27-6.43,18.41-1.97,5.65-3.95,11.3-5.92,16.95-1.71,4.91-3.43,9.81-5.14,14.72-1.36,3.9-2.73,7.8-4.09,11.71-.54,1.55-1.11,3.31-1.74,5.22,9.77-27.92,35.46-101.64,59.18-169.73-.63,1.79-1.25,3.58-1.88,5.37-1.25,3.59-2.51,7.18-3.76,10.77Z"/>
  <path class="cls-5" d="M300.49,64.88h0s-.03.08-.03.08c.02-.04.03-.07.05-.11l-.02.03h0Z"/>
  <g>
    <g>
      <g>
        <path class="cls-4" d="M817.3,468.3c-2.63-23.19-16.36-47.25-46.14-47.25,0,0-40.08-.01-43.28,54.33-.06,1.08,0,2.17.04,3.25.12,2.82.4,5.62.83,8.41.59,3.88,1.46,7.73,2.66,11.47,1.38,4.33,3.19,8.53,5.53,12.43,2.54,4.23,5.7,8.09,9.46,11.29,4.23,3.6,9.16,6.3,14.43,8.05,3.29,1.09,6.76,1.92,10.2,2.25,4.73.46,9.5-.19,14.1-1.32,7.39-1.83,14.24-5.39,19.95-10.44,2.38-2.1,4.69-4.45,6.44-7.11,0,0,3.71-5.61,1.65-11.21-1.31-3.55-3.96-6.79-7.96-7.15-4.57-.41-7.16,3.11-10.01,6.03,0,0-7.03,8.77-20.82,8.77-8.58,0-14.97-3.99-19.1-10.53-2.73-4.32-4.37-9.95-4.68-15.03h37.44c4.59,0,9.18-.02,13.76,0,1.54,0,3.08-.02,4.62.07,1.53.08,3.11.1,4.59-.32,1.85-.52,3.85-2.03,4.88-3.62,2.35-3.66,1.89-8.2,1.41-12.37ZM750.88,465.38s3.01-21.9,22.4-21.9,22.12,21.9,22.12,21.9h-44.52Z"/>
        <path class="cls-4" d="M817.09,443.34c.34,1,.7,1.99,1.06,2.98,0,1.2,1.1,3.01,1.52,4.16.53,1.46,1.07,2.92,1.6,4.37,1.07,2.92,2.13,5.83,3.2,8.75,2.08,5.69,4.18,11.37,6.31,17.05,2.4,6.39,4.82,12.76,7.28,19.13,1.25,3.24,2.51,6.48,3.78,9.72.62,1.59,1.24,3.18,1.87,4.76.31.79.63,1.59.94,2.38.16.4,1.09,2.03.94,2.39-1.86,4.69-3.87,9.35-6.5,13.67-3.28,5.38-7.8,10.11-12.65,14.09-1.05.86-4.59,3.6-5.75,4.32-2.46,1.53-5.02,2.58-6.97,4.81-1.92,2.2-2.98,4.95-2.98,7.88,0,2.4.56,4.79,1.87,6.82,1.08,1.68,2.54,3.08,4.3,4.03,1.83.98,4.18.68,6.09.07,1.83-.59,3.51-1.56,5.14-2.57,7.16-4.43,13.82-9.77,19.45-16.05.56-.62,1.09-1.25,1.61-1.9.61-.75,1.21-1.51,1.76-2.3,0,0,9.04-11.78,14.4-25.58,5.35-13.8,11.9-31.77,11.9-31.77,4.55-12.07,9.05-24.16,13.66-36.21,1.64-4.3,3.28-8.59,4.93-12.89,1.73-4.54,3.49-9.49,2.08-14.14-1.9-6.28-10.56-10.57-15.64-5.15-1.9,2.03-2.92,4.7-3.9,7.31-4.43,11.78-8.85,23.56-13.25,35.36-1.88,5.05-3.77,10.11-5.65,15.16-.38,1.02-2.82,5.4-2.41,6.48-2.31-6.07-4.62-12.14-6.93-18.21-4.27-11.21-8.56-22.42-12.76-33.65-1.02-2.73-2.06-5.45-3.15-8.16-.96-2.38-2.68-4.51-4.94-5.77-3.37-1.87-7.94-1-10.64,1.68-2.5,2.49-3.4,6.25-3.16,9.77.16,2.47.82,4.87,1.61,7.23Z"/>
        <path class="cls-4" d="M395.04,433.51c-.15,1.41-.14,2.84-.13,4.24.04,4.07.04,8.14.04,12.21v53.24c0,2.96,0,5.91,0,8.87,0,2.72-.17,5.5.16,8.21.35,2.92,1.34,5.79,3.32,8.01,1.69,1.91,4.02,3.03,6.56,3.24.35.03.71.04,1.06.04,3.32,0,6.21-1.6,8.11-4.3,1.61-2.29,2.45-4.99,2.81-7.74.39-2.9.28-5.83.25-8.75-.02-2.43-.02-4.86-.01-7.29,0-2.39,0-4.78,0-7.17v-28.67c0-2.95-.08-5.83.58-8.73.88-3.85,2.63-7.74,5.61-10.42,2.77-2.49,6.36-3.68,10.04-3.84.32-.01.64-.02.96-.02,3.7,0,7.34,1.06,10.16,3.52,2.45,2.14,4.02,5.04,5.08,8.07,1.5,4.28,1.5,8.89,1.49,13.37,0,8.91-.02,17.83-.02,26.74v23.14s.97,12.08,10.94,12.08,10.85-11.11,10.85-11.11v-53.35s.24-22.5,18.8-22.5c17.22-.05,15.67,22.01,15.67,22.01v54.12s1.41,10.82,10.91,10.82,10.81-10.61,10.81-10.61v-59.25s-1.24-40.66-32.37-40.66c-22.62,0-30.32,18.08-30.54,18.03-.07-.01-.18-.3-.21-.36-.17-.33-.35-.65-.52-.98-.28-.5-.56-.99-.86-1.47-.38-.63-.79-1.24-1.21-1.85-.5-.72-1.02-1.42-1.57-2.09-.62-.77-1.27-1.51-1.95-2.22-.74-.78-1.53-1.52-2.34-2.22-.88-.75-1.8-1.45-2.75-2.1-1.02-.69-2.08-1.31-3.18-1.85-3.28-1.63-6.91-2.58-10.57-2.79-.94-.05-1.89-.11-2.83-.1-2.33.02-4.6.47-6.78,1.3-1.26.48-2.47,1.09-3.63,1.78-1.14.68-2.23,1.45-3.26,2.28-1.21.97-2.34,2.04-3.4,3.17-1.24,1.32-2.38,2.73-3.44,4.2-.14.19-.28.39-.41.58,0,0-1.3-12.54-10.99-12.54-3.91,0-7.12,2.15-9.09,5.45-.72,1.21-1.35,2.58-1.74,3.94-.21.75-.35,1.52-.43,2.29Z"/>
        <path class="cls-4" d="M582.47,420.9c-25.44,0-46.06,24.98-46.06,55.8s20.62,55.8,46.06,55.8,46.06-24.98,46.06-55.8-20.62-55.8-46.06-55.8ZM582.47,509.21c-13.58,0-24.59-14.52-24.59-32.43s11.01-32.43,24.59-32.43,24.59,14.52,24.59,32.43-11.01,32.43-24.59,32.43Z"/>
        <path class="cls-4" d="M657.61,434.62c0-2.27-.53-4.51-1.64-6.49-1.6-2.85-4.58-6.12-9.84-6.12-3.2,0-5.94,1.65-7.76,4.23-.74,1.04-1.32,2.19-1.78,3.38-.69,1.75-.93,3.45-.93,5.33,0,.07,0,.14,0,.21,0,4.1.02,8.2.02,12.3v68.24c0,2.38-.22,4.72.45,7.06,1.42,4.95,5.46,8.88,10.78,8.88,9.35,0,10.51-10.46,10.51-10.46v-50.4c0-2.72.36-5.42,1.09-8.03,1.95-6.97,6.7-18.37,20.19-18.37,4.45,0,8.75,1.44,12.04,4.47,2.74,2.51,4.62,5.83,5.89,9.29,2.41,6.56,2.17,13.42,2.11,20.28-.02,2.03-.04,4.06-.04,6.09v28.34c0,3.49-.54,7.05.65,10.41,1.63,4.62,5.69,8.39,10.77,8.39,3.67,0,6.7-1.95,8.49-5.1,1.86-3.26,2-6.62,2.01-10.31.02-7.58-.03-15.17-.03-22.76v-21.65c0-8.45-.9-16.7-3.72-24.73-1.98-5.65-4.75-11.12-8.69-15.66-4.34-5-10.07-8.54-16.6-9.8-2.07-.4-4.18-.59-6.28-.59-17.14,0-25.89,11.65-27.33,13.67-.07.09-.33.01-.33-.1Z"/>
      </g>
      <g>
        <path class="cls-1" d="M474.56,673.72c-.14-.98-.03-2.09-.03-3.05v-107.56c0-1.86.78-3.73,2.07-5.07,1.32-1.37,3.15-2,5.02-2.06.12,0,.24,0,.36,0,1.91,0,3.79.6,5.17,1.96,1.62,1.59,2.42,3.74,2.41,5.98,0,2.06,0,4.11,0,6.17v98.93c0,1.66.19,3.47-.2,5.07-.85,3.48-3.76,5.75-7.32,5.75-3.36,0-6.42-2.21-7.36-5.49-.06-.2-.1-.41-.13-.62Z"/>
        <path class="cls-1" d="M507.46,673.72c-.14-.98-.03-2.09-.03-3.05v-107.56c0-1.86.78-3.73,2.07-5.07,1.32-1.37,3.15-2,5.02-2.06.12,0,.24,0,.36,0,1.91,0,3.79.6,5.17,1.96,1.62,1.59,2.42,3.74,2.41,5.98,0,2.06,0,4.11,0,6.17v98.93c0,1.66.19,3.47-.2,5.07-.85,3.48-3.76,5.75-7.32,5.75-3.36,0-6.42-2.21-7.36-5.49-.06-.2-.1-.41-.13-.62Z"/>
        <path class="cls-1" d="M353.7,653.43c-.18-.74-.36-1.49-.54-2.24-.36-1.49-.71-2.98-1.06-4.47-.7-2.98-1.4-5.96-2.1-8.95-1.58-6.82-3.2-13.76-4.8-20.63-1.6-6.86-2.99-13.8-4.86-20.59-.11-.41-.23-.82-.35-1.22-.52-1.74-1.25-3.42-2.63-4.66-2.06-1.82-5.46-2.1-8.18-1.71-1.97.28-3.98.92-5.34,2.37-1.41,1.5-1.91,3.61-2.35,5.62-4.32,19.53-8.65,39.06-12.97,58.59-4.66-18.73-9.32-37.45-13.98-56.18-.94-3.78-2.2-7.98-5.64-9.81-3.08-1.64-7.27-.35-9.17,2.5-2.69,4.04-1.43,9.05-.19,13.36,6.31,22.07,12.62,44.14,18.93,66.2.7,2.46,1.52,5.09,3.54,6.67,1.65,1.29,3.84,1.65,5.93,1.74,2.49.11,5.21-.17,7.03-1.87,1.64-1.52,2.21-3.83,2.71-6.01l12.71-55.84c.04-.16.25-.15.3,0,4.17,16.39,7.99,32.86,11.88,49.32.54,2.29,1.07,4.57,1.61,6.86.42,1.81.89,3.69,2.11,5.09,1.64,1.87,4.31,2.46,6.79,2.51,1.97.04,4.01-.2,5.69-1.22,2.6-1.57,3.88-4.64,4.56-7.6,2-8.63,4.61-17.13,7.02-25.68,3.8-13.51,8.12-26.89,11.6-40.48.32-1.27.64-2.54.94-3.81.33-1.4.65-2.85.73-4.28.1-2.03-.28-4.03-1.82-5.8-1.44-1.67-3.62-2.55-5.82-2.4-6,.4-7.38,7.26-8.43,11.93-4.11,18.32-8.79,36.87-13.32,54.82"/>
        <path class="cls-1" d="M461.85,665.93c-1.36-.61-3.1-.43-4.09-1.54-.91-1.03-.95-2.76-.94-4.13.09-13.13.18-26.25.27-39.38.03-5.04.06-10.14-1.09-15.06-1.15-4.91-3.61-9.69-7.69-12.66-3.22-2.35-7.2-3.41-11.13-4.12-8.03-1.45-16.47-1.63-24.21.99-5.8,1.96-11.16,5.62-14.69,10.66-2.33,3.32-4.47,8.05-4.02,12.32.17,1.6.7,3.14,1.73,4.51,2.42,3.23,7.67,4.22,10.62,1.48,2.67-2.47,2.68-6.67,4.44-9.85,2.46-4.44,7.95-6.26,13.02-6.53,4.99-.27,10.32.73,14.04,4.07,3.72,3.35,5.18,9.46,2.25,13.51-1.96,2.71-5.32,3.98-8.56,4.84-6.59,1.74-13.45,2.32-20.04,4.06-6.59,1.74-13.16,4.88-17.1,10.44-3.78,5.34-4.66,12.28-4,18.79.5,4.92,1.87,9.89,4.93,13.77,3.86,4.9,10.03,7.55,16.21,8.36,11.37,1.48,23.35-3.02,30.93-11.63.12,3.49,1.79,6.9,4.46,9.14,2.67,2.25,6.3,3.26,9.76,2.78,3.45-.48,7.08-2.49,8.06-5.83.95-3.21.02-7.57-3.16-9ZM441.73,649.18c-.52,4.12-2.6,7.9-5.6,10.74-1.43,1.36-3.07,2.5-4.85,3.35-5.22,2.49-11.68,3.05-17.28,1.64-5.36-1.34-8.09-5.65-7.87-11.09.18-4.52,2.52-8.33,6.31-10.68,3.56-2.21,7.67-3.21,11.76-3.94,5.32-.95,10.87-1.59,15.93-3.59.42-.17,1-.41,1.68-.73,0,2.47,0,4.94,0,7.4,0,2.28.21,4.63-.08,6.89Z"/>
        <path class="cls-1" d="M623.15,590.04c0-.53,0-1.07,0-1.6,0-1.32,0-2.65,0-3.97,0-1.71,0-3.41-.01-5.12,0-1.68,0-3.35-.01-5.03,0-1.24,0-2.48,0-3.71,0-.86.02-1.66.29-2.48.18-.56.42-1.11.72-1.62.84-1.42,2.15-2.47,3.72-2.98.94-.31,1.93-.43,2.91-.43,1.84,0,3.66.56,4.98,1.88,2.22,2.24,2.34,5.47,2.27,8.43-.05,2.12-.02,4.25-.02,6.37v10.31h7.83c1,0,1.98-.08,2.94.29,2.8,1.07,4.56,3.55,4.75,6.53.01.22.02.44.02.66,0,2.6-1.08,5.02-3.29,6.45-.36.23-.74.42-1.13.6-.82.38-1.6.45-2.5.45-2.85,0-5.7,0-8.55,0v53.78s.2,6.37,7.17,6.37,10.6-.49,10.6,7.15c0,2.13-.58,4.06-2.24,5.47-1.79,1.52-4.21,2.06-6.47,2-2.73-.07-5.35.1-8.06-.34-2.46-.4-4.82-1.34-6.98-2.56-3.69-2.08-6.69-5.25-8.05-9.31-.63-1.87-.9-3.85-.9-5.82v-56.48c-1.35,0-2.71.03-4.06.04-1.32,0-2.66.13-3.96-.21-2.06-.54-4.04-2.27-4.92-4.2-.46-1.02-.67-2.14-.67-3.25,0-2.68,1.2-5.13,3.46-6.59,1.12-.72,2.23-.97,3.56-1.02,2.19-.08,4.44-.04,6.63-.04Z"/>
        <path class="cls-1" d="M607.85,627.24c-2.14-19.25-9.89-39.21-37.48-39.21-22.81,0-39.6,28.19-34.08,57.5,2.66,14.16,8.96,27.83,25.12,33.53,2.66.94,6.05,1.2,8.85,1.48,8.49.85,17.76-1.93,24.42-7.23,5.06-4.02,12.46-13.77,9.87-20.95-1.06-2.94-3.16-4.42-6.41-4.71-3.71-.34-6.01,3.68-6.88,5.45-2.13,4.3-3.75,12.5-19.17,12.5-9.31,0-14.57-6.06-17.92-11.49-2.21-3.58-3.21-10.37-3.46-14.58h33.41c3.73,0,7.45-.02,11.18,0,1.25,0,2.51-.02,3.75.05,1.24.07,2.53.08,3.73-.27,1.5-.43,3.13-1.68,3.96-3.01,1.91-3.04,1.49-5.61,1.11-9.07ZM550.75,624.84s2.14-21.82,21.35-21.82c20.49,0,20.17,21.82,20.17,21.82h-41.52Z"/>
      </g>
      <g>
        <path class="cls-7" d="M46.8,397.71l-31.79.13.06,26.2-15.01.13-.06,28.52h15.14s-.06,38.64,0,40.46c.06,1.82.5,13.26,12.56,24.5,13.95,13.76,30.6,13.51,30.6,13.51l23.87-.06v-27.14s-6.41,0-19.73,0-15.64-16.08-15.64-16.08l.06-35.06s9.99-.06,21.55-.13c11.56-.06,13.76-12.75,13.76-12.75v-15.83l-35.37.06v-26.45Z"/>
        <path class="cls-7" d="M131.15,424.16c-4.9,0-13.66.28-26.1,10.74-12.44,10.46-14.58,25.26-14.51,28.87.06,3.61.03,67.38.03,67.38l30.85.03s.03-53.97.03-62.98,13.57-15.45,17.28-15.45,18.13.03,18.13.03l-.16-28.62h-25.54Z"/>
        <path class="cls-7" d="M261.57,424.16l-32.32.09s.09,59.46.09,64.74-4.99,15.83-17.15,15.83-16.11-13.1-16.11-15.93.09-40.33.09-51.08-10.65-13.76-13.19-13.76-18.47.19-18.47.19c0,0-.09,60.69-.09,66.15s.75,16.02,11.03,27.61c10.27,11.59,22.71,14.7,37.51,14.51,14.8-.19,23.75-2.73,35.72-12.25,11.97-9.52,13.1-28.27,13-33.83-.09-5.56-.09-62.29-.09-62.29Z"/>
        <path class="cls-7" d="M369,459.59c-3.86-12.35-7.93-17.99-14.7-24.88-10.84-11.03-27.05-13.57-34.68-13.57s-20.73,1.88-34.21,13c-13.48,11.12-18.19,29.97-18.56,44.86-.38,14.89,7.44,31.57,18,41.37,10.55,9.8,23.75,12.35,35.62,12.25,11.87-.09,18.94-2.54,29.03-8.58,10.08-6.03,17.15-19.13,17.15-19.13,0,0-24.31-6.13-29.4-7.54-2.36,3.49-8.95,9.14-18.94,8.86-9.99-.28-15.83-7.73-18.38-11.5-.77-1.14-1.35-3.57-1.78-6.51,14.04-.02,68.23-.09,72.74-.09.14-13.43.47-19.22-1.88-28.55ZM297.72,466.48c1.69-6.43,7.7-19.23,22.94-18.2,18.09,1.23,19.98,18.28,19.98,18.28l-42.92-.08Z"/>
      </g>
    </g>
    <g>
      <path class="cls-3" d="M700.38,30.9h-137.23c-8.96,0-16.94,5.67-19.89,14.13-6.54,18.77-13.91,39.92-21.51,61.74,0,0,0,0,0,0-.24.68-.47,1.35-.71,2.03-.16.47-.33.93-.49,1.4-23.72,68.09-49.42,141.81-59.18,169.73-1.13,3.48-2.43,7.45-4,11.52-.28.72-1.63,4.17-4.11,7.57-.43.58-.85,1.11-1.27,1.6-.72.86-1.63,1.87-2.97,2.92-.08.06-.15.11-.23.17-.46.36-.98.73-1.58,1.09-1.46.89-2.7,1.35-3.19,1.52-.07.02-.14.05-.21.07-.01,0-.02,0-.03.01-.04.02-.09.03-.13.04-.03.01-.06.02-.09.03-1.76.59-3.38.83-4.7.91h164.95c1.07,0,2.13-.12,3.16-.39,4.01-1.03,12.59-4.75,16.2-18l85.69-246.15c2.03-5.84-2.3-11.94-8.49-11.94Z"/>
      <g>
        <path class="cls-5" d="M357.02,82.13h0s-.03.08-.03.08c.02-.04.03-.07.05-.11l-.02.03h0Z"/>
        <path class="cls-8" d="M294.27,260.64c.04-.1.07-.2.11-.3.1-.3.21-.6.31-.89.17-.48.34-.97.51-1.45.23-.66.46-1.32.7-1.98.29-.83.58-1.65.87-2.48.35-.98.69-1.97,1.04-2.95.4-1.13.79-2.26,1.19-3.39.44-1.27.89-2.54,1.33-3.8.49-1.39.98-2.79,1.47-4.18.53-1.51,1.06-3.02,1.59-4.54.57-1.62,1.14-3.24,1.7-4.86.6-1.72,1.2-3.43,1.81-5.15.63-1.8,1.27-3.61,1.9-5.41.66-1.88,1.32-3.76,1.98-5.64.68-1.95,1.37-3.9,2.05-5.84.7-2.01,1.41-4.01,2.11-6.02.72-2.05,1.44-4.11,2.16-6.16.73-2.09,1.47-4.18,2.2-6.27.74-2.12,1.49-4.24,2.23-6.36.75-2.14,1.5-4.27,2.25-6.41.75-2.14,1.51-4.29,2.26-6.43.75-2.14,1.5-4.29,2.26-6.43l2.24-6.39c.74-2.11,1.48-4.22,2.22-6.33.73-2.08,1.46-4.15,2.19-6.23.71-2.04,1.43-4.07,2.14-6.11.7-1.98,1.39-3.97,2.09-5.95.67-1.92,1.35-3.85,2.02-5.77.65-1.85,1.3-3.7,1.95-5.55.62-1.77,1.24-3.54,1.86-5.31.59-1.68,1.18-3.36,1.77-5.04.55-1.58,1.11-3.16,1.66-4.73.51-1.47,1.03-2.93,1.54-4.4.47-1.35.94-2.69,1.42-4.04.43-1.21.85-2.43,1.28-3.64.38-1.07.75-2.15,1.13-3.22.32-.92.65-1.85.97-2.77.27-.76.54-1.53.8-2.29.44-1.24.83-2.52,1.41-3.7l.05-.06.02-.02.02-.03.03-.03c.11-.22.16-.42.29-.63,1.13-2.5,4.13-5.2,5.35-5.58l-18.58-62.45c-2.32-7.95-9.95-13.41-17.89-13.41h-131.08c-6.17,0-10.6,5.94-8.84,11.85l73.79,248c3.05,8.8,9.66,13.37,16.42,13.71,0,0,0,0,.01,0,7.04.3,14.21-3.98,17.67-12.92Z"/>
        <path class="cls-2" d="M362.74,75.88s.01-.01.02-.02l-.06.04s.03-.02.04-.02Z"/>
        <path class="cls-2" d="M413.94,272.51c-.31-1.03-.61-2.06-.92-3.08-.16-.53-.31-1.06-.47-1.59l-31.62-106.24-22.12-74.3c-.82-2.77-.55-5.54.62-7.82.28-.55.62-1.06,1-1.54.05-.06.09-.12.13-.18.54-.64,1.17-1.22,1.88-1.71.08-.05.16-.1.24-.15l.06-.04c-1.22.38-4.22,3.08-5.35,5.58-.13.22-.25.44-.36.66-.02.04-.03.07-.05.11-.58,1.19-.97,2.46-1.41,3.7-.27.76-.54,1.53-.8,2.29-.32.92-.65,1.85-.97,2.77-.38,1.07-.75,2.15-1.13,3.22-.43,1.21-.85,2.43-1.28,3.64-.47,1.35-.94,2.69-1.42,4.04-.51,1.47-1.03,2.93-1.54,4.4-.55,1.58-1.11,3.16-1.66,4.73-.59,1.68-1.18,3.36-1.77,5.04-.62,1.77-1.24,3.54-1.86,5.31-.65,1.85-1.3,3.7-1.95,5.55-.67,1.92-1.35,3.85-2.02,5.77-.7,1.98-1.39,3.97-2.09,5.95-.71,2.04-1.43,4.07-2.14,6.11-.73,2.08-1.46,4.15-2.19,6.23-.74,2.11-1.48,4.22-2.22,6.33l-2.24,6.39c-.75,2.14-1.5,4.28-2.26,6.43-.75,2.14-1.51,4.29-2.26,6.43-.75,2.14-1.5,4.27-2.25,6.41-.74,2.12-1.49,4.24-2.23,6.36-.73,2.09-1.47,4.18-2.2,6.27-.72,2.05-1.44,4.11-2.16,6.16-.7,2.01-1.41,4.01-2.11,6.02-.68,1.95-1.37,3.9-2.05,5.84-.66,1.88-1.32,3.76-1.98,5.64-.63,1.8-1.27,3.61-1.9,5.41-.6,1.72-1.2,3.43-1.81,5.15-.57,1.62-1.14,3.24-1.7,4.86-.53,1.51-1.06,3.02-1.59,4.54-.49,1.39-.98,2.79-1.47,4.18-.45,1.27-.89,2.54-1.33,3.8-.4,1.13-.79,2.26-1.19,3.39-.35.98-.69,1.97-1.04,2.95-.29.83-.58,1.65-.87,2.48-.23.66-.46,1.32-.7,1.98-.17.48-.34.97-.51,1.45-.1.3-.21.6-.31.89-.04.1-.07.2-.11.3-3.46,8.93-10.64,13.22-17.67,12.92,0,0,0,0-.01,0-.13.01-.26.02-.38.02h138.06c-.11-.36-.21-.71-.32-1.07Z"/>
        <path class="cls-6" d="M521.76,106.77c-1.18-4.26-2.35-8.53-3.48-12.81-.93-3.52-2.02-6.92-3.92-10.05-1.86-3.07-4.38-5.72-7.53-7.47-.88-.49-1.8-.91-2.74-1.24-1.49-.53-4.02-.91-5.6-.91h-129.96c-2.27,0-4.21.6-5.78,1.59-.01,0-.03.02-.04.02-.08.05-.17.1-.24.15-.71.49-1.34,1.06-1.88,1.71-.05.06-.09.12-.13.18-.38.48-.72.99-1,1.54-1.17,2.27-1.45,5.04-.62,7.82l22.12,74.3,31.62,106.24,1.58,5.32,6.01,20.93c.39,1.11,3.57,9.75,12.34,12.49,4.3,1.34,8.09.68,10.02.18.29-.07.65-.17,1.07-.3.03,0,.06-.02.09-.03.05-.02.11-.04.16-.05.07-.02.13-.04.21-.07.48-.17,1.72-.63,3.19-1.52.59-.36,1.11-.73,1.58-1.09.95-.74,1.65-1.44,2.17-1.97.35-.35.69-.72,1.03-1.12.42-.49.84-1.01,1.27-1.6,2.48-3.4,3.84-6.84,4.11-7.57,1.57-4.07,2.87-8.04,4-11.52.62-1.91,1.2-3.67,1.74-5.22,1.36-3.9,2.73-7.8,4.09-11.71,1.71-4.91,3.43-9.81,5.14-14.72,1.97-5.65,3.95-11.3,5.92-16.95,2.14-6.14,4.29-12.27,6.43-18.41,2.22-6.36,4.44-12.72,6.66-19.08,2.21-6.33,4.42-12.65,6.63-18.98,2.11-6.03,4.21-12.06,6.32-18.1,1.91-5.48,3.83-10.96,5.74-16.43,1.63-4.66,3.26-9.33,4.89-13.99,1.25-3.59,2.51-7.18,3.76-10.77.63-1.79,1.25-3.58,1.88-5.37.16-.47.33-.93.49-1.4.24-.68.47-1.35.71-2.03,0,0,0,0,0,0Z"/>
      </g>
    </g>
  </g>
</svg>